PERFORMER "Nic Fanciulli"
TITLE "Essential Mix (2006-04-23)"
FILE "2006-04-23 - EM - Nic Fanciulli" MP3
  TRACK 01 AUDIO
    PERFORMER "Essential Mix"
    TITLE "Intro"
    INDEX 01 00:00:00
  TRACK 02 AUDIO
    PERFORMER "Delia Gonzalez & Gavin Russom"
    TITLE "Relevee (DFA Mix)"
    INDEX 01 00:40:00
  TRACK 03 AUDIO
    PERFORMER "Kirk Degiorgio"
    TITLE "Starwaves (Spirit Catcher's Time Modulator Mix)"
    INDEX 01 04:40:00
  TRACK 04 AUDIO
    PERFORMER "ID"
    TITLE "ID(Chris Dukenfield Edit)"
    INDEX 01 11:00:00
  TRACK 05 AUDIO
    PERFORMER "Quentin Harris"
    TITLE "Lets Be Young (Julian Jabre Mix)"
    INDEX 01 15:30:00
  TRACK 06 AUDIO
    PERFORMER "Onionz"
    TITLE "Poking U"
    INDEX 01 21:53:00
  TRACK 07 AUDIO
    PERFORMER "Hernan Cerbello"
    TITLE "Summer Emergency"
    INDEX 01 27:40:00
  TRACK 08 AUDIO
    PERFORMER "Dave Robertson & Mike Healey"
    TITLE "Pressure Cooker"
    INDEX 01 33:00:00
  TRACK 09 AUDIO
    PERFORMER "Jay Box & Becker"
    TITLE "Jetlag Slave"
    INDEX 01 37:30:00
  TRACK 10 AUDIO
    PERFORMER "Dave Robertson & Jon Gurd"
    TITLE "The Rendition"
    INDEX 01 45:30:00
  TRACK 11 AUDIO
    PERFORMER "Yoko Haris & Rada"
    TITLE "Ono (Remix)"
    INDEX 01 51:52:00
  TRACK 12 AUDIO
    PERFORMER "Francois Dubious"
    TITLE "Blood"
    INDEX 01 57:20:00
  TRACK 13 AUDIO
    PERFORMER "Magik Johnson"
    TITLE "Eastern Lights"
    INDEX 01 65:10:00
  TRACK 14 AUDIO
    PERFORMER "Partial Arts"
    TITLE "Cruising"
    INDEX 01 70:49:00
  TRACK 15 AUDIO
    PERFORMER "Marco Bailey"
    TITLE "Bollox (Gabriel Ananda Mix)"
    INDEX 01 79:30:00
  TRACK 16 AUDIO
    PERFORMER "Hardfloor"
    TITLE "Soulfoul Spirit (Josh Wink Remix)"
    INDEX 01 85:40:00
  TRACK 17 AUDIO
    PERFORMER "Sebastién Léger"
    TITLE "Bad Clock"
    INDEX 01 93:45:00
  TRACK 18 AUDIO
    PERFORMER "Gabriel Ananda"
    TITLE "Bassmaschinchen"
    INDEX 01 100:25:00
  TRACK 19 AUDIO
    PERFORMER "16 Bit Lolita's"
    TITLE "Sedna"
    INDEX 01 107:20:00
  TRACK 20 AUDIO
    PERFORMER "Satoshi Tomiie"
    TITLE "Tears (3D Mix)"
    INDEX 01 114:40:00
  TRACK 21 AUDIO
    PERFORMER "Essential Mix"
    TITLE "Outro"
    INDEX 01 118:34:00